<?xml version="1.0" encoding="UTF-8"?>
<!DOCTYPE svg PUBLIC "-//W3C//DTD SVG 1.1//EN" "http://www.w3.org/Graphics/SVG/1.1/DTD/svg11.dtd">
<!-- Creator: CorelDRAW 2018 (64-Bit) -->
<svg xmlns="http://www.w3.org/2000/svg" xml:space="preserve" width="22.9188mm" height="43.0725mm" version="1.1" style="shape-rendering:geometricPrecision; text-rendering:geometricPrecision; image-rendering:optimizeQuality; fill-rule:evenodd; clip-rule:evenodd"
viewBox="0 0 1540.53 2895.2"
 xmlns:xlink="http://www.w3.org/1999/xlink">
 <defs>
  <style type="text/css">
   <![CDATA[
    .fil2 {fill:#FEFEFE}
    .fil0 {fill:#2B2A29}
    .fil3 {fill:#FECC00}
    .fil1 {fill:#66C1EE}
   ]]>
  </style>
 </defs>
 <g id="Layer_x0020_1">
  <metadata id="CorelCorpID_0Corel-Layer"/>
  <path class="fil0" d="M1530.18 814.29l-1530.18 0 0 1820.72c4.54,98.82 60.93,150.8 163.18,150.8l458.41 0c42.61,0 142.47,37.21 142.47,109.4l20.7 0c0,-70.77 91.38,-109.4 138.32,-109.4l458.46 0c50.37,2.2 90.15,-10.12 117.82,-36.61 27.32,-26.17 41.17,-64.58 41.17,-114.19l0 -1820.72 -10.35 0z"/>
  <path class="fil1" d="M1519.85 834.07c0,20.46 0,1717.18 0,1717.18 0,43.74 -11.72,77.11 -34.8,99.2 -23.43,22.46 -58.1,32.86 -103.06,30.89l-458.9 -0.02c-45.04,0 -121.71,29.45 -148.99,86.21 -28.53,-56.09 -107.63,-86.21 -152.49,-86.21l-458.41 0c-91.89,0 -138.47,-42.7 -142.49,-130.54 0,0 0,-1696.25 0,-1716.71 20.31,0 1478.84,0 1499.15,0z"/>
  <path class="fil0" d="M1530.18 813.37l-1530.18 0 0 1737.88c4.54,98.78 60.93,150.79 163.18,150.79l458.41 0c42.61,0 142.47,37.19 142.47,109.4l20.7 0c0,-70.77 91.38,-109.4 138.32,-109.4l458.46 0c50.37,2.18 90.15,-10.14 117.82,-36.61 27.32,-26.17 41.17,-64.58 41.17,-114.18l0 -1737.88 -10.35 0zm-10.33 20.7c0,20.46 0,1717.18 0,1717.18 0,43.74 -11.72,77.11 -34.8,99.2 -23.43,22.46 -58.1,32.86 -103.06,30.89l-458.9 -0.02c-45.04,0 -121.71,29.45 -148.99,86.21 -28.53,-56.09 -107.63,-86.21 -152.49,-86.21l-458.41 0c-91.89,0 -138.47,-42.7 -142.49,-130.54 0,0 0,-1696.25 0,-1716.71 20.31,0 1478.84,0 1499.15,0z"/>
  <path class="fil2" d="M906.56 2585.87c16.52,-49.63 -24.82,-115.69 -66.04,-169.39 -20.75,-24.76 -24.8,-49.51 -24.8,-70.19 4.05,4.15 8.19,4.15 12.36,4.15 -4.17,-24.8 8.27,-45.41 20.66,-66.09 -8.22,-16.53 -28.97,-16.53 -33.02,-37.14 4.05,-4.14 4.05,-8.29 8.19,-8.29 -4.15,-4.1 -8.19,-8.24 -8.19,-12.39 4.05,-4.15 4.05,-8.27 8.19,-12.37 0,-4.14 -4.15,-8.26 -8.19,-12.41 4.05,-4.13 8.19,-8.27 12.36,-12.37 -4.17,-4.12 -4.17,-8.27 -8.31,-12.41 4.15,-4.12 8.31,-8.24 12.44,-12.38 -4.12,-4.13 -8.29,-8.29 -8.29,-8.29 4.17,-8.24 8.29,-12.34 8.29,-16.46 0,-4.15 -4.12,-8.29 -4.12,-12.41l8.27 -12.37c0,-4.15 -4.15,-12.39 -8.27,-16.52 4.12,-4.12 12.44,-8.27 16.54,-12.41 -4.1,-4.13 -8.27,-12.39 -12.41,-16.5 4.15,-4.13 8.31,-8.27 12.41,-12.4l-4.1 -12.39 12.32 -16.54c-4.1,-4.09 -8.22,-12.37 -8.22,-16.51l12.37 -16.54c-4.15,-4.11 -8.25,-8.22 -12.37,-12.37 4.12,-8.26 8.22,-12.38 12.37,-16.52 -4.15,-8.24 -8.25,-12.37 -12.37,-20.64 4.12,-4.13 8.22,-8.27 8.22,-12.41 -4.1,-4.12 -4.1,-8.24 -8.22,-16.5 0,-4.11 0,-8.25 4.12,-12.41l-8.22 -12.37c0,-4.15 4.1,-12.37 4.1,-16.52 -4.1,-8.23 -8.27,-12.38 -12.41,-20.64 -20.66,-41.32 -28.88,-82.61 -49.55,-123.87 -4.07,-20.68 -4.07,-41.32 0,-61.97 -4.07,0 -4.07,0 -4.07,0 -16.6,24.77 -24.83,53.67 -33.09,82.58 -8.27,33.04 -12.41,57.83 -12.41,86.74 -53.65,45.43 -82.56,82.6 -99.09,123.9 37.12,-33.05 70.19,-53.68 94.94,-53.68 -4.07,66.06 -4.07,119.74 -4.07,177.57 0,4.14 0,12.41 0,16.53 -12.39,8.25 -20.68,20.65 -24.8,33.04 0,4.15 0,4.15 0,8.27 0,4.1 -4.12,12.34 -4.12,20.64 12.39,4.14 24.76,12.38 37.14,12.38 4.15,45.41 12.41,86.73 24.82,132.16 -8.25,12.41 -16.54,24.78 -16.54,45.38 4.13,0 8.29,4.17 8.29,8.31 8.25,-8.31 16.5,-8.31 24.78,-8.31 20.61,33.09 33.04,61.97 37.12,70.26 -8.22,20.62 -12.39,41.29 -12.39,66.11 4.17,0 4.17,0 8.31,0 0,-12.44 8.25,-20.7 20.61,-20.7 41.34,16.54 78.48,74.36 74.38,115.69l4.09 0z"/>
  <path class="fil2" d="M117.75 925.62c49.6,28.91 74.34,103.25 86.7,165.2 8.25,28.9 20.68,49.55 37.22,61.95 4.07,0 4.07,-4.15 4.07,-8.29 20.68,16.52 45.5,28.93 70.23,33.04 4.15,16.54 -8.27,33.04 4.15,49.59 4.17,0 12.39,0 16.46,0 0,4.09 0,8.23 0,16.52 8.31,0 12.46,0 20.68,0 0,4.11 0,8.23 0,12.36 8.24,0 12.41,4.17 20.68,4.17 0,4.1 4.15,8.22 4.15,12.37 4.12,0 8.27,0 16.46,0 0,4.11 0,8.23 0,12.38 8.29,4.13 16.6,4.13 20.68,4.13 4.12,4.13 4.12,8.26 4.12,12.39l20.68 4.14c0,4.13 4.07,12.39 4.07,16.49 8.27,0 12.41,0 20.68,0 0,4.12 4.17,12.41 4.17,16.54 8.25,0 12.32,4.12 20.59,4.12l4.17 12.39 20.61 4.13c4.17,4.15 4.17,8.25 8.29,16.52l20.61 0c0,8.27 4.15,12.4 4.15,20.68 8.29,0 16.58,4.11 20.68,4.11 4.12,4.13 4.12,12.39 8.22,16.5 4.14,4.15 12.44,4.15 16.58,4.15 0,8.25 4.1,12.37 4.1,20.67 4.15,0 8.25,4.11 12.39,4.11l4.12 16.54c8.31,4.11 12.39,4.11 16.54,8.25 4.1,8.23 4.1,16.52 8.22,24.76 20.7,41.31 45.51,74.34 61.97,115.64 16.51,20.64 28.9,33.05 49.57,45.43 -4.1,0 -4.1,0 -4.1,0 -28.96,-4.12 -57.87,-20.64 -86.74,-37.17 -33.06,-16.52 -53.72,-33.04 -78.5,-49.57 -70.19,0 -123.89,-8.23 -165.17,-24.77 49.55,-4.14 90.84,-8.25 107.37,-24.78 -53.65,-45.44 -99.15,-82.59 -140.4,-123.88 -4.12,-4.13 -12.41,-8.27 -16.54,-8.27 -12.41,-4.13 -28.92,-4.13 -41.31,-8.25 -4.07,-4.15 -4.07,-4.15 -4.07,-8.29 -8.31,-4.13 -16.58,-8.23 -20.73,-8.23 0,-16.52 8.29,-24.79 12.41,-33.04 -28.9,-37.17 -57.8,-70.18 -82.56,-111.51 -16.58,0 -33.04,-8.27 -45.48,-20.64 0,-4.13 0,-8.27 0,-12.4 8.29,0 16.51,-4.11 20.68,-8.27 -12.39,-37.16 -24.8,-66.05 -33.09,-74.34 -20.66,-12.37 -37.12,-24.76 -53.67,-41.28 12.44,4.12 24.82,4.12 33.02,-4.14 12.48,-33.05 0,-99.12 -37.12,-123.9l0 -8.25z"/>
  <path class="fil2" d="M1426.87 921.49c-49.49,28.9 -74.26,103.23 -86.7,165.18 -8.22,28.9 -20.61,49.58 -37.14,61.95 -4.14,0 -4.14,-4.14 -4.14,-8.25 -20.68,16.52 -41.29,28.91 -70.19,33.04 -4.12,16.52 8.22,33.02 -4.12,49.56 -4.17,0 -12.39,0 -16.56,0 0,4.15 0,8.24 0,16.52 -8.2,0 -12.37,0 -20.64,0 0,4.15 0,8.25 0,12.37 -8.24,0 -12.34,4.13 -20.63,4.13 0,4.17 0,8.27 -4.15,12.39 -4.15,0 -8.31,0 -16.54,0 0,4.15 0,8.26 0,12.38 -8.22,4.15 -12.37,4.15 -20.66,4.15 0,4.13 -4.09,8.26 -4.09,12.39l-20.68 4.13c0,4.14 -4.12,12.37 -4.12,16.53 -8.25,0 -12.34,0 -20.64,0 0,4.1 -4.15,12.38 -4.15,16.52 -8.27,0 -12.39,4.12 -20.61,4.12l-4.12 12.41 -20.7 4.09c-4.05,4.13 -4.05,8.28 -8.22,16.52l-20.66 0c0,8.29 -4.12,12.41 -4.12,20.68 -8.27,0 -16.56,4.13 -20.7,4.13 -4.1,4.11 -4.1,12.37 -8.25,16.5 -4.07,4.11 -8.22,4.11 -16.53,4.11 0,8.3 -4.15,12.4 -4.15,20.68 -4.07,0 -8.22,4.14 -12.29,4.14l-4.17 16.5c-8.27,4.15 -12.44,4.15 -16.58,8.25 -4.08,8.25 -4.08,16.54 -8.17,24.79 -20.7,41.31 -45.48,74.32 -61.95,115.66 -16.6,20.63 -28.97,33.02 -49.6,45.41 4.12,0 4.12,0 4.12,0 28.88,-4.15 57.8,-20.67 86.72,-37.19 33.02,-16.5 53.7,-33.02 78.52,-49.56 70.17,0 123.89,-8.25 165.13,-24.78 -49.53,-4.11 -90.86,-8.23 -107.33,-24.76 53.65,-45.43 99.09,-82.64 140.38,-123.9 4.15,-4.14 12.41,-8.27 16.58,-8.27 12.34,-4.12 28.9,-4.12 41.22,-8.27 4.15,-4.13 4.15,-4.13 4.15,-8.26 8.29,-4.11 16.51,-8.25 20.68,-8.25 0,-16.52 -8.25,-24.76 -12.39,-33.06 28.9,-37.14 57.83,-74.32 82.58,-111.45 16.52,0 33.05,-8.3 45.49,-20.68 0,-4.13 0,-8.27 4.09,-12.38 -12.39,0 -20.68,-4.15 -24.82,-8.27 12.44,-37.16 24.82,-66.06 33.04,-74.34 20.66,-12.4 37.22,-24.77 57.8,-41.3 -4.07,0 -4.07,0 -4.07,0 -12.41,4.14 -20.66,4.14 -33.07,-4.13 -12.34,-33.04 0,-99.1 37.14,-123.89l0 -8.26z"/>
  <g id="_884156784">
   <path class="fil0" d="M821.93 2355.94c2.22,0.37 4.33,0.39 6.16,0.39 1.74,0 3.36,-0.76 4.52,-2.08 1.09,-1.32 1.57,-3.08 1.3,-4.77 -3.8,-22.57 7.64,-41.65 19.76,-61.87 1.04,-1.71 1.27,-4.1 0.37,-5.88 -4.34,-8.66 -11.37,-13.4 -17.6,-17.64 -6.59,-4.42 -11.92,-8.09 -14.24,-15.47 0.74,-1.04 1.38,-2.04 1.88,-2.85 0.26,-0.37 0.53,-0.79 0.71,-1.12 2.02,-0.34 3.82,-1.67 4.56,-3.56 0.88,-2.2 0.42,-4.7 -1.25,-6.37 -1.78,-1.74 -4.75,-4.73 -5.95,-6.74 1.3,-1.78 2.18,-3.52 2.92,-4.95 0.9,-1.86 1.62,-3.31 3.03,-4.68 1.11,-1.14 1.74,-2.64 1.74,-4.19 0,-4.72 -2.64,-8.66 -5.91,-12.29l8.31 -8.31c1.09,-1.09 1.73,-2.61 1.73,-4.17 0,-1.57 -0.63,-3.08 -1.71,-4.17 -1.41,-1.41 -2.15,-2.85 -3.06,-4.71 -0.46,-0.87 -0.99,-1.92 -1.62,-2.96l8.81 -8.82c1.13,-1.09 1.73,-2.59 1.73,-4.14 0,-1.56 -0.63,-3.09 -1.76,-4.17l-5.14 -5.14c0.77,-1.34 1.55,-2.59 2.22,-3.72 2.5,-4.01 4.68,-7.53 4.68,-11.72 0,-3.48 -1.51,-6.46 -2.69,-8.87 -0.32,-0.67 -0.76,-1.55 -1.09,-2.32l6.92 -10.32c0.67,-0.96 1,-2.08 1,-3.27 0,-4.5 -2.69,-10.68 -5.93,-15.55 1.04,-0.75 2.1,-1.48 3.24,-2.21 3.29,-2.21 6.76,-4.51 9.22,-7.02 2.29,-2.31 2.29,-5.98 0,-8.29 -1.6,-1.65 -3.52,-4.5 -5.4,-7.29 -1.04,-1.58 -2.13,-3.16 -3.22,-4.69l8.62 -8.65c1.6,-1.59 2.13,-3.89 1.41,-5.98l-3.13 -9.47 10.51 -14.07c1.71,-2.34 1.49,-5.62 -0.58,-7.68 -2.92,-2.93 -5.4,-7.98 -6.18,-10.82l10.88 -14.55c1.74,-2.35 1.49,-5.64 -0.58,-7.71l-9.19 -9.2c3.01,-5.05 6.04,-8.19 9.22,-11.37 1.78,-1.79 2.22,-4.54 1.09,-6.81 -2.22,-4.4 -4.4,-7.68 -6.51,-10.86 -1.32,-1.98 -2.59,-4.01 -3.84,-6.15 3.64,-3.87 6.83,-8.21 6.83,-13.39 0,-1.55 -0.6,-3.05 -1.71,-4.15 -1.57,-1.59 -2.2,-3.15 -3.5,-6.53 -0.72,-1.9 -1.69,-4.29 -2.99,-7.04 0.05,-3.17 0.35,-4.97 2.41,-7.02 1.97,-1.98 2.25,-5.1 0.72,-7.41l-7 -10.53c0.32,-1.47 0.99,-3.5 1.51,-4.99 1.2,-3.64 2.36,-7.1 2.36,-10.12 0,-0.91 -0.23,-1.81 -0.62,-2.62 -2.25,-4.46 -4.47,-7.79 -6.6,-11 -2.02,-3.01 -3.92,-5.87 -5.81,-9.66 -10.14,-20.3 -17.44,-41.1 -24.48,-61.23 -7.06,-20.19 -14.38,-41.04 -24.66,-61.73 -3.82,-19.63 -3.77,-39.5 0.07,-59.1 0.35,-1.73 -0.09,-3.51 -1.21,-4.87 -1.11,-1.38 -2.78,-2.15 -4.56,-2.15l-4.07 0c-2,0 -3.82,0.98 -4.91,2.61 -11.72,17.46 -19.33,36.96 -25.66,56.77l-10.79 4.3 8.17 4.09c0,0.08 -0.05,0.16 -0.07,0.26l-8.1 8.05 4.14 0 0 4.13 0.38 0c-0.63,2.21 -1.26,4.42 -1.88,6.6 -7.39,29.49 -12.33,55.39 -12.6,85.63 -52.01,44.32 -81.6,81.66 -98.74,124.46 -0.99,2.55 -0.16,5.44 2.08,7.02 2.25,1.57 5.26,1.38 7.32,-0.43 35.27,-31.4 63.75,-48.73 84.75,-51.69 -3.68,63.16 -3.7,115.74 -3.7,171.18l0 13.54c-11.23,8.31 -19.9,20.3 -24.53,34.17 -0.21,0.6 -0.32,1.21 -0.32,1.86l0 8.27c0,0.88 -0.69,3.33 -1.27,5.28 -1.25,4.33 -2.8,9.68 -2.8,15.36 0,2.54 1.62,4.79 4.01,5.6 3.86,1.28 7.74,2.99 11.83,4.79 7.02,3.15 14.27,6.25 21.84,7.37 3.96,40.57 11.37,79.73 23.81,125.74 -8.18,12.44 -16.05,25.42 -16.05,46.43 0,3.27 2.64,5.93 5.88,5.93 0.91,0 2.41,1.48 2.41,2.39 0,2.39 1.46,4.54 3.63,5.44 2.22,0.93 4.75,0.4 6.42,-1.27 5.58,-5.63 10.93,-6.44 17.29,-6.55 16,26.05 26.95,49.49 32.3,60.95 0.65,1.42 1.25,2.59 1.74,3.66 -8.06,21.03 -11.86,42.03 -11.86,65.83 0,3.24 2.61,5.88 5.85,5.88l8.31 0c3.24,0 5.9,-2.64 5.9,-5.88 0,-8.73 5.22,-14.26 13.6,-14.7 38.44,16.11 73.43,70.72 69.63,109.11 -0.16,1.67 0.4,3.31 1.49,4.54 1.11,1.23 2.71,1.95 4.38,1.95l4.09 0c2.53,0 4.8,-1.65 5.59,-4.05 18.22,-54.75 -29.48,-126 -66.97,-174.84 -17.37,-20.75 -22.09,-41.17 -23.25,-56.94zm8.33 108.79c-0.67,-0.28 -1.41,-0.42 -2.18,-0.42 -9.91,0 -17.9,4.4 -22.42,11.65 1.32,-17.23 5.01,-33.09 11.35,-49 0.62,-1.57 0.58,-3.29 -0.19,-4.8 -0.67,-1.36 -1.58,-3.28 -2.74,-5.79 -5.65,-12.09 -17.36,-37.19 -34.69,-64.97 -1.06,-1.72 -2.96,-2.76 -4.97,-2.76 -6.67,0 -14.63,0.04 -22.63,5 -1.23,-1.39 -2.66,-2.55 -4.33,-3.41 1.09,-16.19 7.9,-26.65 15.16,-37.65 0.95,-1.44 1.39,-3.38 0.93,-5.01 -13.15,-48.33 -20.77,-88.78 -24.61,-131.13 -0.28,-3.08 -2.82,-5.37 -5.88,-5.37 -7.02,0 -14.5,-3.33 -22.39,-6.86 -2.8,-1.23 -5.63,-2.45 -8.48,-3.57 0.41,-2.78 1.18,-5.58 1.97,-8.13 0.95,-3.27 1.73,-6.04 1.73,-8.59l0 -7.11c4.21,-12.16 12.07,-22.55 22.21,-29.31 1.64,-1.1 2.61,-2.92 2.61,-4.89l0 -16.53c0,-57.25 0,-111.32 4.07,-177.21 0.09,-1.61 -0.46,-3.21 -1.59,-4.41 -1.09,-1.17 -2.67,-1.84 -4.29,-1.84 -20.51,0 -46.17,12.37 -78.06,37.64 17.62,-32.03 44.53,-62.37 86.03,-97.49 1.32,-1.1 2.08,-2.74 2.08,-4.48 0,-26.23 3.43,-50.14 12.25,-85.3 6.22,-21.83 12.69,-44.33 22.92,-64.6 -0.99,14.57 -0.16,29.21 2.74,43.7 0.09,0.52 0.28,1.02 0.48,1.47 10.22,20.32 17.48,41.15 24.55,61.27 7.13,20.47 14.55,41.63 25.03,62.61 2.22,4.44 4.42,7.74 6.55,10.92 1.76,2.63 3.43,5.22 5.05,8.29 -0.32,1.46 -1.04,3.62 -1.57,5.21 -1.23,3.65 -2.34,7.08 -2.34,10.11 0,1.16 0.35,2.29 0.97,3.27l5.9 8.89c-2.75,4.59 -2.8,9.13 -2.8,12.64 0,0.91 0.22,1.83 0.63,2.64 1.43,2.89 2.36,5.26 3.17,7.37 1.04,2.74 2.06,5.36 3.86,7.93 -1.2,2.05 -4.15,5.01 -5.93,6.78 -1.81,1.79 -2.22,4.53 -1.11,6.81 2.25,4.48 4.44,7.8 6.59,11 1.25,1.94 2.51,3.92 3.75,6.03 -3.33,3.56 -6.88,7.94 -10.34,14.87 -1.12,2.26 -0.7,5 1.11,6.78l1.67 1.68 7.08 7.1 -9.31 12.45c-0.76,1.03 -1.18,2.25 -1.18,3.53 0,4.83 3.11,11.64 6.67,16.67l-9.61 12.85c-1.11,1.55 -1.46,3.54 -0.86,5.38l2.96 8.94 -6.53 6.53 -3.31 3.3c-1.09,1.11 -1.69,2.61 -1.69,4.18 0,1.56 0.63,3.06 1.71,4.17 1.69,1.65 3.66,4.6 5.53,7.43 0.91,1.34 1.83,2.68 2.76,3.98 -1.09,0.75 -2.18,1.53 -3.33,2.27 -3.27,2.18 -6.65,4.42 -9.1,6.88 -1.11,1.1 -1.73,2.59 -1.73,4.17 0,1.57 0.63,3.09 1.73,4.17 3.01,2.98 5.51,8.14 6.3,10.97l-7.04 10.47c-0.63,0.97 -0.99,2.13 -0.99,3.29 0,3.45 1.48,6.41 2.71,8.83 0.63,1.22 1.46,2.92 1.46,3.59 0,0.85 -1.62,3.45 -2.92,5.48 -1.34,2.22 -3.06,4.95 -4.77,8.38 -1.14,2.25 -0.69,5 1.11,6.79l4.1 4.1 -5.12 5.12 -3.11 3.08c-1.14,1.14 -1.73,2.61 -1.73,4.17 0,1.6 0.58,3.11 1.71,4.17 1.36,1.44 2.13,2.87 3.03,4.68 0.46,0.93 1.02,1.97 1.64,3.03l-8.8 8.78c-2.27,2.27 -2.27,6 0,8.29 2.02,2.04 4.82,4.88 5.96,6.83 -1.32,1.8 -2.2,3.54 -2.96,5.05 -0.91,1.8 -1.62,3.24 -2.99,4.6 -1.09,1.14 -1.69,2.62 -1.69,4.15 0,4.4 2.29,8.15 5.21,11.55 -0.37,0.53 -0.74,1.09 -1.01,1.57 -0.75,1.18 -1.42,2.32 -2.51,3.41 -1.38,1.38 -1.99,3.38 -1.59,5.3 2.76,13.94 11.88,20.07 19.94,25.52 4.63,3.11 8.96,6.21 11.99,10.56 -10.9,18.22 -21.32,36.98 -20.35,59 -0.55,-0.34 -1.04,-0.74 -1.59,-1.25 -1.67,-1.71 -4.21,-2.27 -6.42,-1.34 -2.22,0.92 -3.66,3.05 -3.66,5.44 0,18.34 2.68,45.92 26.19,73.99 27.93,36.38 61.9,85.82 67.48,129.28 -11.48,-35.73 -40.94,-71.92 -73.22,-84.82z"/>
   <path class="fil0" d="M786.79 1772.24c0,-4.13 -4.14,-4.13 -8.21,-4.13 0,0 -4.15,0 -4.15,4.13 0,4.15 4.15,8.28 4.15,8.28 4.07,0 8.21,-4.13 8.21,-8.28z"/>
   <path class="fil0" d="M753.75 1850.72c16.54,4.13 28.9,0 45.41,-16.51 -16.51,8.23 -33.02,12.37 -45.41,16.51z"/>
   <polygon class="fil0" points="799.16,1854.85 795.04,1858.96 786.96,2036.91 790.92,2044.82 786.79,2048.96 786.79,2053.09 782.65,2061.34 786.79,2069.61 782.65,2073.71 786.79,2081.98 782.65,2086.11 786.79,2090.25 782.65,2098.52 782.65,2102.64 782.65,2110.89 782.65,2115.03 782.65,2123.29 786.79,2127.41 782.65,2131.53 782.65,2135.67 782.65,2143.94 782.65,2148.04 778.58,2156.28 782.65,2160.45 778.58,2168.72 782.65,2172.84 778.58,2181.11 778.58,2185.25 778.58,2193.47 782.65,2201.74 778.58,2205.89 782.65,2214.15 778.58,2218.25 782.65,2222.37 778.58,2226.52 782.65,2230.67 778.58,2238.91 782.65,2243.05 778.58,2251.32 782.65,2255.44 778.58,2259.59 782.65,2267.81 778.58,2271.95 782.65,2280.24 778.58,2284.34 782.65,2288.49 782.65,2296.75 786.79,2309.12 790.92,2296.75 786.79,2288.49 790.92,2284.34 786.79,2276.1 790.92,2271.95 786.79,2267.81 790.92,2259.59 786.79,2255.44 790.92,2247.19 786.79,2243.05 790.92,2238.91 786.79,2230.67 790.92,2226.52 786.79,2222.37 790.92,2218.25 786.79,2210.01 790.92,2205.89 786.79,2197.62 790.92,2193.47 786.79,2185.25 790.92,2181.11 786.79,2172.84 790.92,2168.72 786.79,2160.45 790.92,2156.28 786.79,2148.04 790.92,2143.94 786.79,2135.67 795.04,2131.53 790.92,2123.29 795.04,2119.15 790.92,2115.03 795.04,2110.89 790.92,2102.64 795.04,2094.4 790.92,2090.25 795.04,2086.11 790.92,2077.87 795.04,2073.71 790.92,2065.47 795.04,2061.34 790.92,2053.09 799.16,2048.96 790.92,2040.68 799.16,2036.56 795.04,2028.28 799.16,2024.19 795.04,2015.91 803.33,2011.77 795.04,2003.53 803.33,1995.24 795.04,1987.02 803.33,1982.86 795.04,1978.75 803.33,1970.48 795.04,1966.35 803.33,1962.22 799.16,1953.97 803.33,1949.81 799.16,1941.57 803.33,1933.29 799.16,1929.17 807.48,1920.92 799.16,1912.68 807.48,1904.38 799.16,1900.27 807.48,1892.01 799.16,1883.75 807.48,1875.48 799.16,1867.25 807.48,1863.1 "/>
   <polygon class="fil0" points="786.79,2040.68 786.96,2036.91 786.79,2036.56 "/>
   <path class="fil0" d="M669 1629.69l2.11 2.13 -4.07 4.15 12.39 0 -4.15 8.26 14.89 -2.98c19.27,10.03 38.91,18.38 58.66,21.2 0.28,0.03 0.58,0.05 0.83,0.05l4.1 0c2.64,0 4.98,-1.75 5.68,-4.32 0.71,-2.56 -0.4,-5.27 -2.67,-6.62 -20.45,-12.25 -32.12,-24.33 -47.54,-43.48 -9.89,-24.58 -22.35,-45.83 -35.6,-68.27 -8.77,-14.92 -17.85,-30.34 -26.12,-46.92 -1.83,-3.57 -2.73,-7.29 -3.72,-11.25 -1.09,-4.34 -2.2,-8.82 -4.52,-13.49 -0.28,-0.58 -0.67,-1.08 -1.11,-1.55 -3.48,-3.46 -7.02,-4.82 -10.75,-6.24 -1.48,-0.54 -3.13,-1.24 -4.91,-2.04l-3.47 -13.77c-0.67,-2.63 -3.01,-4.47 -5.7,-4.47 -0.69,0 -2.36,-0.82 -3.56,-1.43 -0.99,-0.5 -2.13,-1.04 -3.33,-1.51 -0.46,-2.85 -1.21,-5.28 -1.92,-7.48 -0.95,-2.85 -1.78,-5.28 -1.78,-8.47 0,-3.25 -2.64,-5.89 -5.89,-5.89 -2.73,0 -9.97,0 -12.44,-2.42 -1.04,-1.06 -1.85,-3.51 -2.63,-5.89 -1.16,-3.54 -2.53,-7.56 -5.59,-10.61 -1.11,-1.1 -2.59,-1.71 -4.14,-1.71 -0.83,0 -3.41,-0.75 -5.28,-1.3 -2.94,-0.85 -6.35,-1.81 -10.02,-2.37 -0.49,-2.55 -1.18,-4.77 -1.86,-6.78 -0.95,-2.84 -1.76,-5.29 -1.76,-8.46 0,-3.25 -2.64,-5.88 -5.91,-5.88l-16.81 0c-0.67,-1.49 -1.22,-2.88 -1.67,-4.1 -1.46,-3.73 -2.8,-7.25 -6.25,-10.7 -0.83,-0.82 -1.88,-1.38 -3.01,-1.61l-17.25 -3.45 -3.08 -9.15c-0.81,-2.42 -3.06,-4.03 -5.61,-4.03 -3.15,0 -5.63,-0.81 -8.46,-1.75 -2.12,-0.71 -4.47,-1.44 -7.18,-1.89 -0.39,-1.53 -0.92,-3.09 -1.45,-4.7 -0.7,-2.12 -1.77,-5.3 -1.77,-6.42 0,-3.24 -2.63,-5.88 -5.9,-5.88l-15.82 0c-0.37,-1.36 -0.81,-2.76 -1.3,-4.2 -0.69,-2.11 -1.73,-5.29 -1.73,-6.41 0,-2.81 -2,-5.22 -4.75,-5.77l-16.17 -3.25c-0.4,-3.63 -1.67,-7.73 -5.67,-11.68 -1.09,-1.09 -2.57,-1.71 -4.12,-1.71 -3.25,0 -8.87,-0.14 -14.8,-2.27l0 -8.37c0,-3.25 -2.61,-5.89 -5.88,-5.89l-11.9 0c-0.46,-1.06 -0.92,-2.07 -1.38,-2.97 -0.58,-1.13 -1.44,-2.86 -1.44,-3.5 0,-3.25 -2.64,-5.9 -5.88,-5.9 -3.19,0 -5.65,-0.81 -8.5,-1.77 -1.9,-0.63 -3.96,-1.28 -6.28,-1.75l0 -7.1c0,-3.27 -2.64,-5.89 -5.9,-5.89l-14.78 0 0 -10.63c0,-3.27 -2.61,-5.91 -5.9,-5.91l-13.27 0c-4.17,-7.19 -3.11,-14.57 -1.83,-22.98 1.06,-7.06 2.18,-14.38 0.23,-22.14 -0.58,-2.27 -2.45,-3.98 -4.73,-4.38 -22.6,-3.75 -46.59,-15.05 -67.55,-31.84 -1.78,-1.41 -4.21,-1.67 -6.23,-0.69 -1.81,0.85 -2.96,2.57 -3.24,4.49 -12.9,-11.92 -22.95,-30.19 -29.87,-54.47 -11.92,-59.92 -37.26,-138.28 -89.38,-168.66 -1.83,-1.06 -4.08,-1.06 -5.88,-0.01 -1.86,1.06 -2.99,3 -2.99,5.1l0 8.25c0,1.96 1,3.79 2.64,4.89 35.45,23.67 45.64,85.6 35.32,115.59 -7.25,6.26 -18.09,4.62 -26.12,1.98 -2.59,-0.87 -5.44,0.17 -6.86,2.51 -1.44,2.31 -1.09,5.32 0.86,7.25 16.3,16.2 32.51,28.7 54.07,41.68 5.51,5.96 16.04,26.69 29.97,67.73 -3.59,2.37 -8.78,4.4 -13.78,4.4 -3.27,0 -5.91,2.64 -5.91,5.88l0 12.4c0,1.57 0.65,3.08 1.76,4.17 13.36,13.3 30.01,21.18 46.25,22.16 18.69,30.76 39.25,56.56 61.02,83.81l17.85 22.56c-0.44,0.76 -0.9,1.5 -1.39,2.29 -4.4,7.09 -9.89,15.89 -9.89,30.2 0,3.25 2.69,5.88 5.93,5.88 2.34,0 9.26,3.27 15.03,6.11 0.48,3.21 1.9,4.91 5.59,8.66 0.65,0.66 1.45,1.17 2.33,1.46 6.69,2.22 14.31,3.31 21.66,4.37 7.17,1 13.94,1.98 19.63,3.87 0.63,0.2 1.2,0.3 1.88,0.3 1.95,0 8.8,2.95 12.39,6.55 35.17,35.22 73.11,67.17 116.99,104.15l18.24 15.42c-18.87,12.35 -59.28,15.77 -98.57,19.06 -2.71,0.24 -4.91,2.29 -5.33,5 -0.39,2.72 1.12,5.33 3.64,6.34 41.96,16.8 96.15,25 165.53,25.16 5.61,3.76 11.11,7.58 16.44,11.3 17.71,12.33 36.03,25.07 61.25,37.66 2.92,1.67 5.83,3.33 8.75,4.99zm-81.3 -64.72c-0.99,-0.65 -2.11,-0.99 -3.29,-0.99 -54.88,0 -99.82,-5.16 -136.55,-15.55 40.45,-4.1 68.59,-9.61 82.93,-23.94 1.16,-1.17 1.78,-2.76 1.71,-4.41 -0.07,-1.66 -0.83,-3.19 -2.08,-4.26l-23.75 -20.06c-43.7,-36.81 -81.42,-68.61 -116.24,-103.47 -4.45,-4.46 -13.25,-9.32 -19.55,-9.9 -6.53,-2.08 -13.87,-3.16 -21.03,-4.17 -6.65,-0.96 -12.93,-1.89 -18.34,-3.52 -0.58,-0.63 -1.06,-1.12 -1.3,-1.42 -0.02,-0.38 -0.02,-1 -0.02,-1.64 0,-2.24 -1.28,-4.27 -3.27,-5.27 -7.32,-3.64 -12.76,-6.18 -17.18,-7.61 0.97,-8.27 4.42,-13.89 7.8,-19.35 1.36,-2.16 2.61,-4.23 3.72,-6.42 1.04,-2.04 0.81,-4.46 -0.6,-6.24l-20.38 -25.74c-22.13,-27.74 -43.07,-53.92 -61.81,-85.18 -1.06,-1.78 -2.96,-2.86 -5.05,-2.86 -13.52,0 -27.81,-6.33 -39.6,-17.34l0 -4.52c7.92,-1.41 14.96,-5.41 18.96,-9.4 1.58,-1.57 2.11,-3.91 1.42,-6.03 -7.87,-23.58 -22.79,-64.9 -34.46,-76.63 -0.38,-0.35 -0.72,-0.64 -1.14,-0.89 -15.15,-9.05 -27.49,-17.83 -39.07,-27.83 7.78,-0.53 14.47,-3.3 19.52,-8.38 0.6,-0.58 1.04,-1.3 1.34,-2.08 8.52,-22.59 6.3,-61.44 -8.48,-92.84 24.41,35.39 38.62,84.34 46.76,124.98 8.66,30.43 21.86,52.32 39.44,65.5 1.01,0.78 2.25,1.18 3.54,1.18 4.05,0 6.39,-1.71 7.82,-3.99 19.36,13.96 40.73,23.63 61.32,27.8 0.42,4.44 -0.26,9.12 -0.97,14.01 -1.6,10.44 -3.36,22.28 5.58,34.17 1.14,1.48 2.87,2.34 4.71,2.34l10.63 0 0 10.65c0,3.24 2.59,5.89 5.83,5.89l14.79 0 0 6.47c0,3.25 2.62,5.89 5.89,5.89 3.15,0 5.6,0.83 8.43,1.77 2.22,0.74 4.67,1.51 7.55,1.97 0.44,1.2 1.01,2.33 1.51,3.32 0.6,1.22 1.43,2.89 1.43,3.58 0,3.25 2.66,5.88 5.91,5.88l10.58 0 0 6.5c0,2.22 1.25,4.27 3.27,5.26 7.85,3.94 15.51,4.61 20.49,4.73 1.01,1.69 1.06,3.51 1.06,6.53 0,2.8 1.97,5.22 4.73,5.77l16.7 3.35c0.44,1.65 0.99,3.35 1.57,5.12 0.72,2.11 1.76,5.3 1.76,6.39 0,3.27 2.61,5.91 5.85,5.91l15.84 0c0.4,1.38 0.85,2.76 1.34,4.23 0.69,2.11 1.76,5.28 1.76,6.39 0,3.25 2.66,5.88 5.9,5.88 3.15,0 5.58,0.82 8.41,1.76 2.29,0.76 4.84,1.57 7.82,2.02l2.94 8.72c0.67,2 2.34,3.51 4.42,3.92l18.64 3.72c0.95,1.29 1.53,2.8 2.53,5.38 0.83,2.2 1.92,5 3.61,8.4 0.99,1.99 3.06,3.25 5.28,3.25l15.36 0c0.46,2.34 1.11,4.4 1.75,6.3 0.93,2.84 1.76,5.29 1.76,8.48 0,3.25 2.64,5.89 5.88,5.89 4.05,0 8.31,1.25 12.14,2.36 1.9,0.56 3.61,0.99 5.25,1.32 0.68,1.26 1.26,3 1.86,4.7 1.16,3.5 2.48,7.45 5.46,10.48 4.19,4.19 10.45,5.4 15.47,5.74 0.46,2.37 1.13,4.5 1.75,6.43 0.95,2.84 1.74,5.3 1.74,8.51 0,3.25 2.66,5.89 5.9,5.89 0.7,0 2.37,0.83 3.57,1.45 1.18,0.59 2.52,1.25 4.01,1.78l3.24 12.97c0.42,1.67 1.55,3.07 3.08,3.83 3.41,1.68 6.14,2.75 8.36,3.6 2.96,1.12 4.49,1.77 5.86,2.9 1.48,3.26 2.41,6.63 3.29,10.22 1.09,4.4 2.25,8.95 4.6,13.67 8.48,16.92 17.67,32.51 26.56,47.62 13.15,22.31 25.56,43.42 35.19,67.56 0.24,0.54 0.51,1.04 0.88,1.51 9.54,11.94 18.02,21.49 27.91,30.07 -20.57,-7.15 -41.39,-19 -61.64,-30.6 -24.78,-12.38 -42.75,-24.88 -60.12,-36.98 -5.83,-4.05 -11.86,-8.25 -18.03,-12.38z"/>
   <path class="fil0" d="M675.27 1586.39l0 -4.12c-4.17,-4.11 -8.24,-4.11 -8.24,-4.11 -4.13,4.11 -4.13,8.23 0,8.23 0,4.15 4.07,4.15 8.24,0z"/>
   <path class="fil0" d="M592.7 1549.24c8.24,-12.39 24.75,-16.52 41.28,-20.65 -20.66,0 -37.14,4.13 -41.28,20.65z"/>
   <polygon class="fil0" points="617.45,1512.05 617.45,1503.8 609.19,1503.8 609.19,1495.53 596.84,1495.53 596.84,1483.16 584.4,1483.16 584.4,1474.88 572.04,1470.77 572.04,1462.52 559.65,1462.52 559.65,1454.25 551.36,1454.25 551.36,1445.98 538.97,1445.98 538.97,1437.73 530.75,1437.73 530.75,1429.45 518.32,1429.45 518.32,1421.2 510.08,1421.2 510.08,1412.94 497.71,1408.8 497.71,1400.55 489.39,1400.55 485.27,1392.3 477.1,1392.3 477.1,1388.16 468.78,1384.04 464.64,1379.92 456.38,1375.76 456.38,1371.63 448.1,1371.63 444.03,1363.39 435.74,1359.25 435.74,1351.02 427.45,1351.02 427.45,1346.87 419.23,1342.72 415.15,1338.6 406.84,1338.6 406.84,1330.35 398.55,1330.35 398.55,1322.07 390.36,1322.07 386.21,1313.81 377.94,1313.81 377.94,1322.07 386.21,1326.19 390.36,1330.35 394.4,1330.35 398.55,1334.48 402.67,1338.6 406.84,1342.72 410.98,1346.87 415.15,1351.02 423.35,1355.11 423.35,1359.25 431.62,1363.39 435.74,1367.5 444.03,1371.63 448.1,1375.76 452.28,1379.92 456.38,1384.04 464.64,1388.16 468.78,1392.3 464.64,1392.3 613.33,1512.05 "/>
   <polygon class="fil0" points="369.67,1305.58 365.51,1297.31 361.4,1297.31 357.26,1289.04 349.04,1289.04 344.9,1280.77 340.75,1280.77 336.58,1272.54 328.36,1268.39 328.36,1264.27 320.12,1260.17 320.12,1256 315.97,1256 311.85,1247.75 307.71,1247.75 303.56,1239.49 295.32,1239.49 295.32,1231.21 287.07,1231.21 282.93,1222.97 278.81,1222.97 274.66,1214.74 270.54,1214.74 266.41,1206.44 249.89,1198.19 258.17,1210.57 266.41,1214.74 266.41,1218.84 274.66,1222.97 278.81,1231.21 282.93,1231.21 287.07,1239.49 291.24,1239.49 295.32,1247.75 303.56,1251.87 303.56,1256 311.85,1256 311.85,1264.27 320.12,1264.27 320.12,1268.39 324.29,1272.54 328.36,1276.65 332.51,1280.77 336.58,1289.04 344.9,1293.18 349.04,1297.31 357.26,1297.31 357.26,1305.58 365.51,1309.71 365.51,1313.81 377.94,1313.81 377.94,1305.58 "/>
   <path class="fil0" d="M1430.14 934.64c1.65,-1.09 2.64,-2.93 2.64,-4.89l0 -8.26c0,-2.12 -1.14,-4.07 -2.96,-5.1 -1.83,-1.06 -4.07,-1.05 -5.93,0.01 -41.75,24.39 -71.85,81.29 -89.48,169.13 -6.83,23.94 -16.86,42.18 -29.73,54.06 -0.28,-1.94 -1.44,-3.66 -3.25,-4.52 -2.01,-0.97 -4.44,-0.7 -6.22,0.71 -17.53,14.02 -37.86,27.59 -67.34,31.82 -2.39,0.34 -4.28,2.06 -4.89,4.39 -1.92,7.74 -0.85,15.05 0.21,22.13 1.28,8.42 2.32,15.77 -1.83,22.96l-13.34 0c-3.24,0 -5.88,2.65 -5.88,5.9l0 10.63 -14.75 0c-3.27,0 -5.9,2.64 -5.9,5.89l0 7.1c-2.32,0.48 -4.38,1.12 -6.25,1.76 -2.85,0.95 -5.28,1.77 -8.48,1.77 -3.25,0 -5.91,2.63 -5.91,5.88 0,3.02 -0.05,4.82 -1.04,6.5l-13.73 0c-3.24,0 -5.86,2.63 -5.86,5.89l0 8.6c-4.93,2.01 -8.13,2.04 -14.79,2.04 -3.27,0 -5.9,2.63 -5.9,5.89 0,0.69 -0.81,2.37 -1.42,3.6 -0.58,1.12 -1.2,2.39 -1.67,3.75l-16.95 3.41c-2.74,0.54 -4.73,2.96 -4.73,5.77 0,1.12 -1.07,4.28 -1.76,6.4 -0.51,1.45 -0.95,2.86 -1.34,4.23l-15.77 0c-3.24,0 -5.88,2.65 -5.88,5.9 0,1.09 -1.06,4.26 -1.76,6.36 -0.55,1.61 -1.06,3.2 -1.48,4.73 -2.76,0.46 -5.1,1.19 -7.23,1.91 -2.82,0.94 -5.26,1.75 -8.41,1.75 -2.55,0 -4.77,1.62 -5.56,4.03l-3.1 9.17 -17.3 3.45c-1.18,0.22 -2.25,0.8 -3.05,1.63 -3.36,3.39 -4.71,6.89 -6.12,10.57 -0.46,1.25 -1.01,2.66 -1.67,4.17l-16.91 0c-3.26,0 -5.9,2.64 -5.9,5.89 0,3.21 -0.81,5.66 -1.76,8.5 -0.65,2 -1.32,4.21 -1.79,6.75 -3.66,0.54 -7.13,1.51 -10.05,2.37 -1.96,0.58 -4.44,1.3 -5.32,1.3 -1.57,0 -3.08,0.63 -4.19,1.76 -2.98,3.01 -4.3,6.97 -5.48,10.47 -0.79,2.41 -1.62,4.91 -2.71,5.99 -2.2,2.21 -4.03,2.41 -12.39,2.41 -3.27,0 -5.86,2.63 -5.86,5.88 0,3.2 -0.83,5.65 -1.78,8.5 -0.75,2.19 -1.51,4.64 -1.97,7.48 -1.2,0.45 -2.34,1.01 -3.33,1.52 -1.16,0.57 -2.87,1.44 -3.5,1.44 -2.72,0 -5.07,1.84 -5.72,4.47l-3.45 13.75c-1.88,0.82 -3.57,1.51 -5.03,2.08 -3.73,1.41 -7.25,2.74 -10.7,6.16 -0.46,0.46 -0.83,0.99 -1.14,1.57 -2.31,4.71 -3.42,9.23 -4.51,13.59 -0.97,3.94 -1.9,7.64 -3.64,11.2 -8.27,16.46 -17.32,31.84 -26.07,46.68 -13.28,22.52 -25.75,43.83 -35.69,68.47 -15.4,19.15 -27.14,31.22 -47.59,43.49 -2.29,1.36 -3.38,4.07 -2.64,6.63 0.7,2.53 3.01,4.3 5.7,4.3l4.12 0c0.26,0 0.53,-0.01 0.83,-0.05 19.66,-2.83 39.27,-11.17 58.61,-21.23l14.94 3 -4.15 -8.27 12.39 0 -4.17 -4.11 2.25 -2.21c2.99,-1.7 5.98,-3.4 8.94,-5.08 24.87,-12.41 43.19,-25.13 60.88,-37.45 5.4,-3.71 10.93,-7.56 16.58,-11.34 69.35,-0.16 123.54,-8.38 165.47,-25.19 2.51,-1.02 4.01,-3.65 3.62,-6.35 -0.4,-2.69 -2.61,-4.77 -5.35,-4.99 -37.44,-3.12 -79.36,-6.63 -98.46,-19.04l17.5 -14.79c44.13,-37.24 82.27,-69.38 117.71,-104.8 3.58,-3.58 10.42,-6.55 12.41,-6.55 0.6,0 1.25,-0.1 1.86,-0.3 5.65,-1.88 12.39,-2.84 19.52,-3.86 7.39,-1.06 15.05,-2.15 21.74,-4.39 0.83,-0.3 1.64,-0.79 2.27,-1.43 3.77,-3.75 5.18,-5.46 5.65,-8.66 5.67,-2.8 12.69,-6.14 15.01,-6.14 3.24,0 5.88,-2.63 5.88,-5.88 0,-14.3 -5.44,-23.11 -9.82,-30.18 -0.49,-0.8 -0.95,-1.58 -1.41,-2.33 26.99,-34.68 54.67,-70.44 78.76,-106.3 16.27,-0.94 33.02,-8.86 46.43,-22.21 1.09,-1.1 1.71,-2.61 1.71,-4.17 0,-4.05 0.11,-5.93 2.41,-8.23 1.67,-1.69 2.15,-4.21 1.25,-6.41 -0.93,-2.19 -3.08,-3.63 -5.44,-3.63 -9.1,0 -14.73,-2.43 -17.9,-4.43 13.99,-41.1 24.5,-61.83 29.92,-67.72 20.77,-12.52 37.51,-25.09 57.68,-41.27 1.97,-1.56 2.71,-4.19 1.86,-6.54 -0.81,-2.36 -3.01,-3.95 -5.54,-3.95l-4.07 0c-0.65,0 -1.25,0.1 -1.88,0.31 -9.93,3.33 -16.33,3.72 -26.21,-2.42 -10.05,-30.15 0.19,-91.6 35.43,-115.12zm-45.9 121.05c0.42,1.15 1.2,2.14 2.22,2.82 7.45,4.99 13.85,7.29 20,7.75 -13.22,10.12 -25.82,18.99 -40.43,27.74 -0.42,0.26 -0.79,0.56 -1.14,0.89 -11.53,11.62 -26.54,53.01 -34.46,76.65 -0.74,2.13 -0.16,4.46 1.44,6.04 2.38,2.39 8.61,7.24 19.61,9.13 -0.37,1.66 -0.56,3.22 -0.58,4.71 -11.82,11.04 -26.13,17.4 -39.65,17.4 -1.99,0 -3.79,0.99 -4.93,2.63 -24.92,37.39 -54.08,74.87 -82.3,111.12 -1.39,1.79 -1.62,4.23 -0.63,6.25 1.11,2.19 2.39,4.23 3.7,6.41 3.36,5.46 6.81,11.08 7.78,19.37 -4.31,1.4 -9.56,3.87 -16.58,7.34l-0.53 0.28c-2,0.99 -3.27,3.04 -3.27,5.26 0,0.63 0,1.21 -0.05,1.59 -0.23,0.32 -0.69,0.83 -1.32,1.44 -5.42,1.67 -11.72,2.61 -18.44,3.57 -7.08,1.01 -14.4,2.08 -20.88,4.15 -6.33,0.58 -15.1,5.43 -19.55,9.89 -35.08,35.06 -73.04,67.06 -116.98,104.13l-23.02 19.45c-1.25,1.06 -2.04,2.59 -2.08,4.23 -0.07,1.65 0.53,3.25 1.71,4.42 14.2,14.26 43.28,19.89 82.93,23.92 -36.77,10.4 -81.68,15.59 -136.56,15.59 -1.18,0 -2.31,0.32 -3.26,0.97 -6.26,4.15 -12.3,8.37 -18.16,12.44 -17.39,12.07 -35.34,24.55 -59.76,36.73 -20.49,11.76 -41.41,23.62 -61.95,30.79 9.89,-8.58 18.36,-18.12 27.95,-30.05 0.38,-0.45 0.65,-0.97 0.88,-1.51 9.66,-24.22 22.11,-45.38 35.29,-67.77 8.85,-15.02 18.02,-30.56 26.47,-47.41 2.34,-4.74 3.45,-9.25 4.54,-13.62 0.88,-3.61 1.81,-7 3.29,-10.29 1.38,-1.12 2.94,-1.77 5.81,-2.86 2.25,-0.85 5.03,-1.92 8.5,-3.66 1.51,-0.77 2.64,-2.16 3.05,-3.83l3.25 -12.95c1.46,-0.53 2.8,-1.19 4.01,-1.79 1.14,-0.56 2.87,-1.45 3.5,-1.45 3.29,0 5.88,-2.63 5.88,-5.88 0,-3.17 0.83,-5.62 1.81,-8.46 0.63,-1.92 1.27,-4.03 1.76,-6.4 6,-0.24 10.84,-1.2 15.42,-5.79 3.06,-3.02 4.4,-7.04 5.56,-10.6 0.56,-1.67 1.11,-3.34 1.78,-4.59 1.67,-0.32 3.43,-0.77 5.35,-1.35 3.8,-1.1 8.08,-2.36 12.07,-2.36 3.27,0 5.91,-2.63 5.91,-5.87 0,-3.19 0.81,-5.63 1.75,-8.46 0.6,-1.91 1.28,-3.97 1.71,-6.33l15.4 0c2.25,0 4.26,-1.25 5.26,-3.23 1.74,-3.45 2.83,-6.25 3.68,-8.52 0.95,-2.5 1.55,-3.99 2.43,-5.26l18.67 -3.72c2.06,-0.4 3.77,-1.88 4.46,-3.9l2.92 -8.73c2.96,-0.45 5.48,-1.25 7.75,-2 2.83,-0.95 5.26,-1.76 8.48,-1.76 3.27,0 5.89,-2.65 5.89,-5.9 0,-1.12 1.06,-4.3 1.78,-6.42 0.48,-1.46 0.95,-2.84 1.34,-4.21l15.78 0c3.27,0 5.88,-2.64 5.88,-5.89 0,-1.11 1.04,-4.3 1.75,-6.4 0.6,-1.77 1.16,-3.5 1.6,-5.14l16.74 -3.36c2.71,-0.55 4.7,-2.97 4.7,-5.76 0,-0.69 0.84,-2.34 1.42,-3.57 0.48,-0.89 0.95,-1.91 1.38,-2.97 6.16,-0.14 11.05,-0.87 18.73,-4.74 1.97,-0.99 3.22,-3.04 3.22,-5.26l0 -6.49 10.65 0c1.57,0 3.03,-0.62 4.12,-1.71 3.84,-3.78 5.17,-7.71 5.65,-11.24 2.45,-0.48 4.6,-1.16 6.6,-1.81 2.8,-0.95 5.23,-1.77 8.4,-1.77 3.27,0 5.86,-2.63 5.86,-5.89l0 -6.49 14.77 0c3.27,0 5.9,-2.63 5.9,-5.88l0 -10.64 10.65 0c1.83,0 3.59,-0.88 4.68,-2.35 8.91,-11.89 7.16,-23.71 5.58,-34.14 -0.72,-4.87 -1.36,-9.51 -0.97,-13.93 25.91,-4.56 45.06,-15.55 61.41,-27.8 1.46,2.22 3.82,3.89 7.76,3.89 1.28,0 2.53,-0.42 3.52,-1.17 17.5,-13.11 30.72,-35 39.29,-65.06 8.2,-40.93 22.48,-89.94 46.82,-125.36 -14.71,31.39 -16.91,70.17 -8.43,92.77z"/>
   <path class="fil0" d="M869.42 1582.27c4.07,4.12 8.24,4.12 8.24,0 4.1,0 4.1,-4.11 4.1,-8.25 -4.1,0 -8.27,0 -12.34,4.15l0 4.11z"/>
   <path class="fil0" d="M910.64 1524.44c16.58,4.15 33.04,8.29 41.34,20.66 -4.15,-16.51 -20.59,-20.66 -41.34,-20.66z"/>
   <polygon class="fil0" points="1274.14,1210.57 1270.01,1210.57 1265.89,1218.84 1261.74,1218.84 1257.6,1227.12 1249.33,1227.12 1249.33,1235.35 1241.09,1235.35 1236.92,1243.64 1232.84,1243.64 1228.7,1251.87 1224.58,1251.87 1224.58,1256 1216.26,1260.17 1216.26,1264.27 1208.02,1268.39 1203.94,1276.65 1199.82,1276.65 1195.65,1284.92 1187.39,1284.92 1187.39,1293.18 1195.65,1293.18 1199.82,1289.04 1208.02,1284.92 1212.19,1276.65 1216.26,1272.54 1220.41,1268.39 1224.58,1264.27 1224.58,1260.17 1232.84,1260.17 1232.84,1251.87 1241.09,1251.87 1241.09,1247.75 1249.33,1243.64 1253.48,1235.35 1257.6,1235.35 1261.74,1227.12 1265.89,1227.12 1274.14,1218.84 1278.21,1214.74 1278.21,1210.57 1286.52,1206.44 1294.81,1194.06 1278.21,1202.33 "/>
   <polygon class="fil0" points="1088.27,1371.63 1080.01,1375.76 1075.89,1379.92 1067.6,1384.04 1067.6,1388.16 1059.35,1388.16 1059.35,1396.44 1047.01,1396.44 1047.01,1404.68 1034.55,1408.8 1034.55,1417.05 1026.31,1417.05 1026.31,1425.35 1013.92,1425.35 1013.92,1433.57 1005.65,1433.57 1005.65,1441.87 997.43,1441.87 993.31,1450.1 985.04,1450.1 985.04,1458.37 972.61,1458.37 972.61,1466.62 960.29,1470.77 960.29,1479 947.83,1479 947.83,1491.41 935.46,1491.41 935.46,1499.67 927.22,1499.67 927.22,1507.94 931.39,1507.94 1080.01,1388.16 1075.89,1388.16 1080.01,1384.04 1088.27,1379.92 1092.44,1375.76 1096.52,1371.63 1100.64,1367.5 1092.44,1367.5 "/>
   <polygon class="fil0" points="1175.04,1301.44 1166.76,1301.44 1166.76,1309.71 1158.46,1309.71 1154.3,1317.97 1146.07,1317.97 1146.07,1326.19 1137.85,1326.19 1137.85,1334.48 1129.57,1334.48 1125.42,1338.6 1117.18,1342.72 1117.18,1346.87 1108.96,1346.87 1108.96,1355.11 1100.64,1359.25 1100.64,1367.5 1108.96,1363.39 1113.1,1359.25 1121.33,1355.11 1121.33,1351.02 1129.57,1346.87 1133.71,1342.72 1137.85,1338.6 1141.98,1334.48 1146.07,1330.35 1150.22,1326.19 1154.3,1326.19 1158.46,1322.07 1166.76,1317.97 1170.88,1309.71 1179.15,1309.71 1179.15,1305.58 1187.39,1301.44 1187.39,1293.18 1179.15,1293.18 "/>
  </g>
  <g id="_884161872">
   <path class="fil0" d="M1349.07 66.75c0,-16.47 -13.38,-29.82 -29.86,-29.82 -16.45,0 -29.8,13.35 -29.8,29.82 0,9.56 4.56,17.98 11.56,23.43 -10.43,22.06 -39.31,74.32 -86.46,95.84 -32.85,14.96 -62.29,24.78 -86,32.68 -23.82,7.95 -42.68,14.23 -56.49,22.61 -3.44,2.11 -8.22,5.05 -13.74,8.77 -9.7,-20.78 -28.63,-68.57 -26.45,-120.65 12.57,-3.52 21.78,-14.92 21.78,-28.58 0,-16.49 -13.35,-29.83 -29.8,-29.83 -16.47,0 -29.82,13.34 -29.82,29.83 0,10.65 5.58,19.9 13.98,25.19 -8.33,24.06 -30.6,72.08 -85.37,113.83 -5.3,-4.16 -11.06,-8.22 -17.5,-12.18l-10.32 -6.31c-66.83,-40.91 -111.26,-68.08 -111.26,-163.79 0,-0.38 0,-0.78 0,-1.18 9.8,-4.88 16.58,-14.9 16.58,-26.59 0,-16.46 -13.35,-29.81 -29.83,-29.81 -16.47,0 -29.82,13.35 -29.82,29.81 0,12.37 7.56,23.02 18.3,27.52 0,0.09 0,0.17 0,0.25 0,95.7 -44.44,122.88 -111.3,163.79l-10.28 6.31c-6.44,3.96 -12.23,8.02 -17.5,12.18 -55.5,-42.3 -77.64,-91 -85.71,-114.75 7.62,-5.4 12.61,-14.22 12.61,-24.26 0,-16.49 -13.39,-29.83 -29.82,-29.83 -16.48,0 -29.83,13.34 -29.83,29.83 0,14.32 10.09,26.23 23.51,29.13 2.07,51.85 -16.79,99.42 -26.42,120.09 -5.51,-3.7 -10.32,-6.63 -13.77,-8.74 -13.81,-8.38 -32.6,-14.67 -56.49,-22.61 -23.68,-7.9 -53.15,-17.72 -85.96,-32.68 -47.89,-21.85 -76.98,-75.45 -86.99,-96.85 6.28,-5.47 10.36,-13.44 10.36,-22.42 0,-16.47 -13.35,-29.82 -29.82,-29.82 -16.51,0 -29.86,13.35 -29.86,29.82 0,16.21 12.96,29.33 29.08,29.76 23.3,62.42 160.2,429.36 163.68,438.76 -3.26,4.88 -7.27,12.33 -7.27,20.8 0,3.64 0.7,7.35 2.57,11.07 4.1,8.17 10.39,12.17 16.29,14.12 0.32,8.7 0.73,19.86 0.92,25.23 -0.78,0.78 -1.59,1.69 -2.4,2.68 -0.52,0.09 -0.81,0.15 -0.91,0.17l0.17 0.7c-4.25,5.26 -8.71,12.91 -8.71,22.36 0,0.15 0,0.33 0,0.49 0.13,7.13 3.05,17.7 16.27,27.45l1.4 1.04 1.69 0.54c3.36,1.02 340.56,103.31 733.32,0.11 14.61,-3.83 19.7,-12.05 21.4,-18.28 0.52,-2.07 0.81,-4.19 0.81,-6.27 0,-10.65 -6.43,-20.83 -11.59,-27.36l0.28 -1.67c-0.07,-0.04 -0.77,-0.16 -1.94,-0.36 -0.32,-0.41 -0.67,-0.85 -0.98,-1.22 0.13,-5.05 0.63,-16.8 0.91,-25.62 5.94,-1.95 12.16,-5.95 16.27,-14.12 1.83,-3.72 2.57,-7.43 2.57,-11.07 0,-8.47 -3.93,-15.92 -7.27,-20.8 3.51,-9.4 140.66,-377.04 163.74,-438.96 15.29,-1.3 27.3,-13.97 27.3,-29.56z"/>
   <path class="fil3" d="M1012.63 167.63c5.33,43.58 20.82,79.51 28.52,95.27 -20.76,17.32 -43.07,43.38 -44.8,78.07l1.06 37.89c1.93,33.27 4.6,78.87 -11.81,95.61 -4.95,5.06 -11.7,7.35 -20.62,7.03 -17.14,-0.6 -28.18,-5.01 -32.85,-13.15 -1.79,-3.11 -3.13,-7.56 -3.13,-13.81 0,-11.74 4.71,-29.9 19.75,-57.96 9.67,-17.92 19.49,-42.97 19.49,-69.99 0,-23.75 -7.69,-49.02 -29.86,-72.4 37.41,-29.18 60.36,-60.76 74.24,-86.57zm-364.46 77.87l10.23 -6.27c51.81,-31.73 95.16,-58.69 112.73,-117.69 17.57,59 60.92,85.96 112.73,117.69l10.3 6.27c39.68,24.45 52.97,53.73 52.97,81.97 0,21.17 -7.45,41.74 -16.82,59.22 -14.87,27.63 -22.22,50.15 -22.22,68.05 0,9.22 1.94,17.23 5.91,24.06 5.94,10.4 16.19,17.36 30.36,20.92 -54.63,-5.22 -114.77,-9.09 -173.37,-9.09 -58.88,0 -119.34,4.01 -174.21,9.36 14.79,-3.43 25.36,-10.51 31.55,-21.2 3.89,-6.83 5.86,-14.85 5.86,-24.06 0,-17.9 -7.37,-40.42 -22.2,-68.05 -9.35,-17.48 -16.86,-38.04 -16.86,-59.22 0,-28.24 13.28,-57.52 53.05,-81.97zm-118.5 -77.87c13.87,25.81 36.86,57.39 74.23,86.57 -22.17,23.38 -29.9,48.65 -29.9,72.4 0,27.01 9.91,52.07 19.54,69.99 15.03,28.06 19.71,46.23 19.71,57.96 0,6.25 -1.33,10.69 -3.13,13.81 -4.64,8.14 -15.67,12.54 -32.82,13.15 -8.95,0.32 -15.67,-1.97 -20.59,-7.03 -16.4,-16.74 -13.77,-62.34 -11.84,-95.61l1.1 -37.89c-1.75,-34.7 -24.06,-60.76 -44.86,-78.07 7.69,-15.76 23.19,-51.68 28.56,-95.27zm-259.73 1.34c13.71,14.18 29.83,27.3 49.16,36.12 33.82,15.42 63.86,25.43 88.03,33.5 22.63,7.51 40.44,13.47 52.21,20.62 15.7,9.55 63.48,38.64 65.69,82.8l-1.05 35.62c-0.77,13.09 -1.59,26.71 -1.59,39.98 0,28.62 3.73,55.53 19.32,71.51 8.48,8.66 19.64,12.93 33.1,13.16 -81.54,8.74 -147.45,19.92 -171.51,24.24 -15.04,-40.39 -94.68,-253.84 -133.36,-357.55zm868.83 469.31c-0.14,0.38 -0.6,0.85 -1.3,1.3 -49.35,-8.63 -211.55,-34.8 -366.48,-34.8 -151.63,0 -314.35,26.47 -361.6,34.76 -2.21,-2.36 -3.48,-4.69 -3.55,-6.96 0,-0.04 0,-0.1 0,-0.16 0,-1.42 0.39,-2.84 0.95,-4.24 40.89,-7.33 208.47,-35.56 364.2,-35.56 155.14,0 321.83,27.32 363.64,34.61 2.84,4.5 4.74,8.83 4.15,11.04zm-722.08 -59.76c53.3,-9.24 208.92,-33.83 354.3,-33.83 145.69,0 301.56,24.12 354.68,33.09l-0.99 26.52c-57.6,-9.61 -210.44,-32.62 -353.7,-32.62 -142.98,0 -295.52,23.47 -353.35,33.36l-0.95 -26.52zm727.32 -20.76c-0.35,0.73 -0.81,1.22 -1.22,1.75 -33.59,-6.01 -208.9,-35.75 -371.8,-35.75 -161.64,0 -335.53,30.01 -370.95,36.42 -0.63,-0.59 -1.26,-1.38 -1.79,-2.43 -0.26,-0.47 -0.36,-1.1 -0.36,-1.75 0,-2.19 1.26,-5.11 2.84,-7.76 25.97,-4.81 204.74,-36.68 370.25,-36.68 164.94,0 342.99,30.88 370.03,35.77 1.79,2.88 3.31,6.23 3.31,8.66 0,0.65 -0.03,1.28 -0.32,1.75zm-4.75 -32.01c-23.43,-4.09 -88.92,-15 -170.21,-23.57 12.72,-0.53 23.37,-4.77 31.52,-13.07 15.59,-15.98 19.28,-42.88 19.28,-71.49 0,-13.28 -0.77,-26.91 -1.58,-39.99l-1.05 -35.62c2.25,-44.16 49.99,-73.25 65.73,-82.8 11.73,-7.15 29.62,-13.11 52.2,-20.62 24.14,-8.07 54.21,-18.08 88.03,-33.5 19.32,-8.82 35.46,-21.94 49.15,-36.12 -37,99.21 -113.05,303.07 -133.08,356.79z"/>
   <path class="fil0" d="M454.98 653.27c70.27,-10.92 196.66,-27.54 316.01,-27.54 120,0 244.58,15.88 316.49,26.91 -285.64,64.57 -534.54,22.85 -632.5,0.63z"/>
  </g>
 </g>
</svg>
