<!DOCTYPE svg PUBLIC "-//W3C//DTD SVG 20010904//EN" "http://www.w3.org/TR/2001/REC-SVG-20010904/DTD/svg10.dtd">
<svg version="1.0" xmlns="http://www.w3.org/2000/svg" width="1200px" height="412px" viewBox="0 0 12000 4120" preserveAspectRatio="xMidYMid meet">
<g id="layer101" fill="#1a1a1a" stroke="none">
 <path d="M7041 4044 c-160 -58 -236 -216 -184 -382 18 -57 92 -152 119 -152 8 0 14 -4 14 -8 0 -12 113 -42 157 -42 84 0 190 51 237 113 43 57 59 106 59 187 1 124 -54 215 -159 266 -70 34 -177 42 -243 18z m198 -142 c93 -68 92 -217 -2 -286 -40 -30 -144 -30 -183 0 -55 40 -69 70 -69 143 0 98 43 156 125 171 45 8 96 -3 129 -28z"/>
 <path d="M3877 4043 c-4 -3 -7 -132 -7 -285 l0 -278 220 0 220 0 0 60 0 60 -150 0 -150 0 0 225 0 225 -63 0 c-35 0 -67 -3 -70 -7z"/>
 <path d="M4417 4043 c-4 -3 -7 -132 -7 -285 l0 -278 168 0 c157 0 170 1 212 24 26 13 58 42 74 66 25 36 29 52 29 109 0 116 -47 175 -165 207 -29 7 -81 14 -115 14 l-63 0 0 75 0 75 -63 0 c-35 0 -67 -3 -70 -7z m317 -302 c30 -28 33 -61 9 -101 -20 -34 -37 -40 -125 -40 l-68 0 0 86 0 86 79 -3 c67 -4 83 -8 105 -28z"/>
 <path d="M4927 4044 c-4 -4 -3 -12 1 -18 5 -6 17 -33 27 -61 9 -27 23 -63 31 -80 7 -16 29 -70 49 -120 20 -49 40 -99 45 -110 5 -11 18 -40 28 -65 11 -25 25 -60 33 -77 l14 -33 75 0 75 0 49 118 c27 64 55 131 62 147 32 72 114 285 114 295 0 15 -135 13 -147 -2 -6 -7 -13 -26 -17 -43 -13 -52 -20 -55 -141 -55 l-112 0 -20 53 -20 52 -70 3 c-38 1 -72 0 -76 -4z m348 -294 c-13 -33 -26 -73 -30 -90 -4 -16 -10 -30 -14 -30 -4 0 -21 37 -37 82 -16 45 -30 86 -32 90 -2 4 28 8 66 8 l71 0 -24 -60z"/>
 <path d="M5640 3765 l0 -285 70 0 70 0 0 105 0 105 115 0 115 0 0 -105 0 -105 70 0 70 0 -2 283 -3 282 -67 3 -68 3 0 -116 0 -115 -115 0 -114 0 -3 113 -3 112 -67 3 -68 3 0 -286z"/>
 <path d="M6440 3825 l0 -225 -95 0 -95 0 0 -60 0 -60 260 0 260 0 0 60 0 60 -95 0 -95 0 0 225 0 225 -70 0 -70 0 0 -225z"/>
 <path d="M7560 3766 l0 -286 166 0 c187 0 233 12 267 71 25 45 23 129 -5 164 -16 21 -19 30 -10 33 39 13 72 72 72 129 0 62 -35 119 -88 145 -43 21 -63 23 -224 26 l-178 4 0 -286z m332 150 c17 -12 23 -33 20 -67 -3 -26 -48 -39 -132 -39 l-80 0 0 60 0 60 88 0 c56 -1 93 -5 104 -14z m-42 -229 c28 -14 38 -51 20 -73 -9 -10 -35 -14 -91 -14 l-79 0 0 50 0 50 63 0 c34 0 73 -6 87 -13z"/>
 <path d="M6886 3083 c-3 -42 -6 -96 -6 -120 0 -38 3 -43 23 -43 12 0 27 -4 32 -8 43 -31 75 -173 75 -335 l0 -107 215 0 215 0 0 225 0 225 45 0 45 0 -6 108 c-3 59 -7 113 -10 120 -2 8 -24 12 -64 12 -59 0 -60 0 -60 -29 0 -16 -3 -43 -6 -60 l-6 -31 -178 0 -177 0 -7 60 -7 60 -58 0 -58 0 -7 -77z m424 -328 l0 -165 -85 0 -85 0 0 83 c0 70 -14 158 -36 230 -5 15 4 17 100 17 l106 0 0 -165z"/>
 <path d="M5795 3045 c-54 -13 -112 -41 -134 -63 -16 -16 -5 -42 36 -86 l25 -27 43 25 c81 48 210 44 232 -7 24 -57 -9 -77 -128 -77 l-79 0 0 -60 0 -60 68 0 c89 0 111 -7 118 -37 10 -40 -23 -65 -86 -65 -50 0 -130 27 -130 44 0 4 -6 8 -12 7 -12 0 -83 -98 -76 -104 2 -1 30 -18 63 -36 57 -32 65 -34 161 -34 93 0 103 2 143 28 80 53 105 139 58 208 l-23 34 27 26 c49 48 57 122 23 191 -43 85 -195 128 -329 93z"/>
 <path d="M9610 3044 c-117 -35 -182 -108 -201 -224 -18 -114 16 -220 92 -284 65 -55 115 -71 219 -70 96 0 151 16 204 58 19 15 18 17 -9 56 -43 62 -47 63 -96 35 -52 -29 -142 -34 -189 -10 -95 49 -120 189 -47 268 59 64 164 72 249 18 l43 -27 37 45 c21 25 38 49 38 53 0 17 -90 67 -148 82 -75 19 -130 19 -192 0z"/>
 <path d="M3870 2755 l0 -285 255 0 255 0 0 285 0 285 -70 0 -70 0 0 -220 0 -220 -115 0 -115 0 0 220 0 220 -70 0 -70 0 0 -285z"/>
 <path d="M4520 2755 l0 -285 152 0 c171 0 221 12 274 65 77 77 78 207 2 288 -43 46 -87 61 -190 65 l-98 4 0 74 0 74 -70 0 -70 0 0 -285z m300 -4 c36 -19 49 -55 36 -105 -8 -32 -67 -56 -136 -56 l-60 0 0 90 0 90 63 0 c42 0 74 -6 97 -19z"/>
 <path d="M5110 2755 l0 -285 215 0 215 0 0 60 0 60 -145 0 -145 0 0 50 0 50 130 0 130 0 0 60 0 60 -130 0 -130 0 0 55 0 55 150 0 150 0 0 60 0 60 -220 0 -220 0 0 -285z"/>
 <path d="M6260 2755 l0 -285 65 0 65 0 1 183 c0 174 1 181 17 157 9 -13 55 -77 102 -141 47 -64 92 -127 100 -139 39 -56 45 -60 109 -60 l61 0 0 285 0 285 -70 0 -70 0 0 -167 0 -168 -80 110 c-44 61 -87 119 -96 130 -9 11 -27 37 -41 58 -25 37 -26 37 -94 37 l-69 0 0 -285z"/>
 <path d="M7630 2755 l0 -285 215 0 215 0 0 60 0 60 -145 0 -145 0 0 50 0 50 130 0 130 0 0 60 0 60 -130 0 -130 0 0 55 0 55 155 0 155 0 0 60 0 60 -225 0 -225 0 0 -285z"/>
 <path d="M8200 2755 l0 -285 70 0 70 0 0 110 0 110 115 0 115 0 0 -110 0 -110 70 0 70 0 0 285 0 285 -70 0 -70 0 0 -110 0 -110 -115 0 -115 0 0 110 0 110 -70 0 -70 0 0 -285z"/>
 <path d="M9000 2820 l0 -220 -95 0 -95 0 0 -65 0 -65 260 0 260 0 0 65 0 65 -95 0 -95 0 0 220 0 220 -70 0 -70 0 0 -220z"/>
 <path d="M10050 2755 l0 -285 70 0 70 0 0 105 c0 103 0 105 23 105 23 0 46 -21 78 -70 9 -14 25 -35 35 -47 11 -12 32 -38 48 -58 28 -35 29 -35 107 -35 43 0 79 3 79 7 0 6 -102 143 -125 167 -6 6 -25 30 -43 53 l-34 43 78 102 c43 57 85 111 94 120 8 9 23 30 33 47 l18 31 -88 0 -88 0 -45 -66 c-41 -59 -63 -89 -88 -120 -5 -5 -15 -20 -21 -32 -7 -14 -21 -22 -36 -22 l-25 0 0 120 0 120 -70 0 -70 0 0 -285z"/>
 <path d="M10680 2755 l0 -285 70 0 70 0 0 176 c0 199 -5 194 79 75 30 -41 58 -79 63 -85 23 -28 108 -151 108 -158 0 -5 29 -8 65 -8 l65 0 0 285 0 285 -65 0 -65 0 -2 -167 -3 -168 -55 77 c-30 42 -62 86 -70 98 -8 12 -22 30 -30 40 -8 9 -31 40 -50 69 l-35 51 -72 0 -73 0 0 -285z"/>
 <path d="M11306 3028 c4 -7 47 -72 96 -144 48 -72 88 -136 88 -142 0 -6 -6 -17 -13 -24 -7 -7 -24 -31 -37 -53 -13 -22 -27 -42 -30 -45 -3 -3 -17 -23 -30 -45 -13 -22 -27 -42 -30 -45 -8 -6 -30 -46 -30 -54 0 -3 37 -6 83 -6 l82 0 55 95 c30 52 58 95 61 95 5 0 29 -40 80 -135 l27 -50 86 -3 c47 -1 86 0 86 3 0 3 -41 66 -91 142 l-90 136 19 26 c10 14 38 55 62 91 24 36 59 85 77 109 18 24 33 48 33 52 0 5 -38 9 -85 9 l-85 0 -23 -37 c-13 -21 -36 -60 -52 -88 -47 -86 -50 -89 -63 -62 -6 12 -31 58 -56 102 l-44 80 -92 3 c-73 2 -90 0 -84 -10z"/>
 <path d="M772 3025 c3 -3 30 -10 60 -15 108 -17 204 -81 263 -174 27 -44 95 -207 95 -230 0 -4 7 -22 14 -39 14 -30 28 -69 92 -252 14 -38 29 -79 34 -90 5 -11 21 -53 35 -92 63 -183 77 -220 91 -250 7 -17 14 -35 14 -39 0 -9 86 -244 106 -291 8 -17 14 -36 14 -42 0 -6 4 -19 9 -29 5 -9 26 -64 46 -122 21 -58 44 -119 51 -137 8 -17 14 -37 14 -45 0 -8 3 -17 6 -21 3 -3 19 -42 34 -87 54 -153 108 -223 223 -286 l52 -29 895 -1 c492 -1 870 2 840 6 -103 13 -173 49 -247 128 -45 47 -68 90 -107 199 -25 71 -80 221 -121 333 -13 36 -40 110 -60 165 -19 55 -46 129 -60 165 -13 36 -40 110 -60 165 -19 55 -46 129 -60 165 -36 99 -87 239 -145 400 -28 80 -62 172 -75 205 -13 33 -26 71 -30 85 -11 36 -67 120 -101 151 -43 39 -103 73 -161 92 -47 15 -135 17 -909 17 -472 0 -855 -2 -852 -5z"/>
 <path d="M5970 2040 c0 -107 2 -120 18 -120 27 -1 56 -31 76 -80 15 -35 20 -80 23 -207 l5 -163 219 0 219 0 0 225 0 225 40 0 40 0 0 43 c0 24 -3 78 -6 120 l-7 77 -57 0 c-56 0 -58 -1 -64 -31 -3 -17 -6 -44 -6 -60 l0 -29 -185 0 -185 0 0 60 0 60 -65 0 -65 0 0 -120z m420 -285 l0 -165 -80 0 -80 0 0 56 c0 73 -18 189 -35 237 l-15 37 105 0 105 0 0 -165z"/>
 <path d="M4829 2037 c-131 -49 -192 -139 -191 -283 0 -93 22 -153 75 -206 51 -51 83 -68 155 -83 148 -31 287 34 343 160 66 149 7 324 -134 397 -53 27 -193 36 -248 15z m176 -127 c67 -31 90 -70 90 -157 0 -65 -3 -75 -31 -109 -77 -96 -241 -71 -284 42 -6 14 -10 46 -10 71 0 130 117 207 235 153z"/>
 <path d="M4130 2006 l0 -33 -67 -7 c-135 -14 -201 -73 -210 -189 -12 -144 63 -232 208 -244 l69 -6 0 -38 0 -39 65 0 65 0 0 39 0 38 68 6 c143 12 207 78 207 217 0 64 -4 81 -27 116 -37 57 -86 85 -174 97 l-74 11 0 33 0 33 -65 0 -65 0 0 -34z m0 -256 l0 -100 -36 0 c-49 0 -92 28 -103 66 -22 79 20 127 117 133 21 1 22 -2 22 -99z m199 90 c49 -14 71 -42 71 -89 0 -56 -31 -89 -92 -97 l-48 -7 0 102 c0 112 -1 111 69 91z"/>
 <path d="M5350 1755 l0 -285 70 0 70 0 0 110 0 110 115 0 115 0 0 -110 0 -110 70 0 70 0 0 285 0 285 -70 0 -70 0 0 -115 0 -115 -115 0 -115 0 0 115 0 115 -70 0 -70 0 0 -285z"/>
 <path d="M250 2011 c8 -5 39 -14 69 -20 65 -14 140 -66 179 -125 16 -22 46 -88 66 -146 21 -58 44 -118 51 -135 7 -16 20 -52 29 -80 24 -70 76 -214 91 -250 7 -16 22 -57 33 -90 11 -33 41 -116 66 -184 26 -69 56 -152 67 -185 12 -34 27 -74 34 -91 15 -35 65 -173 96 -265 12 -36 25 -69 29 -75 4 -5 11 -21 15 -34 17 -55 102 -135 171 -161 53 -19 74 -20 767 -19 395 1 691 5 664 9 -69 12 -135 47 -187 99 -45 46 -61 80 -142 301 l-24 65 -135 6 c-104 4 -148 11 -194 28 -186 69 -271 164 -357 399 -51 140 -123 337 -230 632 -33 91 -74 202 -90 248 l-31 82 -526 0 c-296 0 -519 -4 -511 -9z"/>
 </g>
<g id="layer102" fill="#cb9c56" stroke="none">
 <path d="M772 3025 c3 -3 30 -10 60 -15 108 -17 204 -81 263 -174 27 -44 95 -207 95 -230 0 -4 7 -22 14 -39 14 -30 28 -69 92 -252 14 -38 29 -79 34 -90 5 -11 21 -53 35 -92 63 -183 77 -220 91 -250 7 -17 14 -35 14 -39 0 -9 86 -244 106 -291 8 -17 14 -36 14 -42 0 -6 4 -19 9 -29 5 -9 26 -64 46 -122 21 -58 44 -119 51 -137 8 -17 14 -37 14 -45 0 -8 3 -17 6 -21 3 -3 19 -42 34 -87 54 -153 108 -223 223 -286 l52 -29 895 -1 c492 -1 870 2 840 6 -105 13 -173 49 -251 132 -48 52 -58 73 -134 283 -26 72 -54 144 -61 162 -8 17 -14 35 -14 39 0 9 -86 244 -106 291 -8 17 -14 35 -14 39 0 9 -86 244 -106 291 -8 17 -14 35 -14 39 0 8 -83 239 -101 279 -4 11 -31 85 -60 165 -28 80 -57 159 -64 175 -7 17 -21 55 -30 85 -43 134 -139 231 -272 273 -47 15 -135 17 -909 17 -472 0 -855 -2 -852 -5z"/>
 <path d="M250 2011 c8 -5 39 -14 69 -20 65 -14 140 -66 179 -125 16 -22 46 -88 66 -146 21 -58 44 -118 51 -135 7 -16 20 -52 29 -80 10 -27 41 -115 70 -195 74 -201 174 -476 193 -530 8 -25 21 -58 28 -75 7 -16 29 -77 50 -135 20 -58 41 -113 46 -122 5 -10 9 -23 9 -30 1 -7 9 -31 20 -53 11 -22 19 -44 20 -48 1 -31 108 -125 166 -147 53 -19 74 -20 767 -19 395 1 691 5 664 9 -102 18 -198 86 -241 173 -14 29 -44 103 -66 165 -22 62 -42 117 -44 121 -3 5 -67 11 -143 14 -116 4 -148 9 -201 30 -180 73 -259 164 -344 395 -82 224 -167 456 -230 632 -33 91 -74 202 -91 248 l-30 82 -526 0 c-296 0 -519 -4 -511 -9z"/>
 </g>
<g id="layer103" fill="#dfca9c" stroke="none">
 <path d="M250 2011 c8 -5 39 -14 69 -20 65 -14 140 -66 179 -125 26 -38 60 -125 211 -541 32 -88 86 -236 120 -330 34 -93 69 -190 78 -215 8 -25 21 -58 28 -75 7 -16 29 -77 50 -135 20 -58 41 -113 46 -122 5 -10 9 -23 9 -30 1 -7 9 -31 20 -53 11 -22 19 -44 20 -48 1 -25 94 -112 149 -139 l46 -23 725 -1 c399 -1 704 2 677 6 -96 17 -187 77 -233 155 -13 24 -45 100 -69 169 -24 70 -47 130 -49 135 -3 4 -67 11 -143 14 -116 4 -148 9 -201 30 -117 48 -195 109 -258 204 -38 57 -56 104 -316 823 -33 91 -64 174 -68 185 -4 11 -18 48 -30 83 l-22 62 -527 0 c-296 0 -519 -4 -511 -9z"/>
 </g>

</svg>